<svg t="1704645658682" class="icon" viewBox="0 0 1792 1024" version="1.1" xmlns="http://www.w3.org/2000/svg" p-id="2914" width="200" height="200"><path d="M0 0h1792v811.4176H259.0208L0 1024V0z m504.192 254.3104V200.9088h-239.3856V665.6h60.0064v-203.1104h166.1952v-52.7872h-166.1952v-155.392h179.3792zM930.5088 665.6l-87.0144-139.2128c-14.7968-24.192-26.8544-41.2928-36.1472-51.2768a95.3088 95.3088 0 0 0-33.152-23.1168v-1.4848c68.8128-19.2 103.1936-61.0048 103.1936-125.4144 0-39.1936-12.8-69.6832-38.4-91.4944-25.6-21.8112-60.9792-32.6912-106.1888-32.6912h-141.5936V665.6h59.9808v-195.584h43.2128c17.792 0 33.1008 4.6336 45.9008 13.9264 12.8 9.3184 26.88 26.88 42.2912 52.6592L859.6992 665.6h70.8096zM651.2128 253.3888h71.68c29.7984 0 52.5056 6.8096 68.096 20.4032 15.616 13.6192 23.424 32.512 23.424 56.704 0 26.0096-8.5504 47.0016-25.6512 63.0016-17.1008 16-39.3728 24.0128-66.7648 24.0128h-70.784v-164.096zM1242.1888 665.6v-53.0944h-189.9008V456.192h166.2208v-53.0944h-166.2208V254.3104h179.4048V200.9088h-239.3856V665.6h249.8816z m337.8176 0v-53.0944H1390.08V456.192h166.1952v-53.0944h-166.1952V254.3104h179.4048V200.9088h-239.4112V665.6h249.9072z" fill="#1296db" p-id="2915"></path></svg>